<svg width="16" height="16" viewBox="0 0 32 32" xmlns="http://www.w3.org/2000/svg">
  <!-- Who I Follow favicon — primary square + the WIF mark in white. -->
  <rect width="32" height="32" rx="7" fill="#2d8cf0"/>
  <g transform="translate(5 9.7) scale(0.524)" fill="#ffffff">
    <path d="M0 23.6475C0.836013 20.5572 2.4425 17.881 4.43645 15.4445C7.27731 11.9731 10.3767 8.73942 14.7503 7.14747C15.8778 6.73711 17.2338 6.66261 18.4408 6.80233C20.2366 7.0102 21.3885 8.35955 21.3469 10.1498C21.3121 11.6509 21.0542 13.1642 20.7347 14.6431C20.5746 15.3846 20.1111 16.4314 20.7091 16.9002C21.3419 17.3964 22.4048 16.7229 23.05 16.3197C26.0533 14.4424 29.0544 12.547 31.9206 10.4758C34.8254 8.37679 37.5705 6.06341 40.3871 3.84575C40.6755 3.61861 40.974 3.40391 41.2679 3.18344C41.6299 2.95508 41.8836 2.95288 41.541 3.41758C40.2027 5.01675 38.9326 6.67725 37.5132 8.20308C33.792 12.2035 29.619 15.7041 24.9321 18.5563C23.7423 19.2805 22.3009 19.8157 20.9208 19.9723C19.0176 20.1881 17.4344 18.6301 17.5436 16.7297C17.6376 15.0936 18.0985 13.4735 18.4489 11.8572C18.9327 9.62578 18.1742 8.8627 15.9384 9.47191C12.534 10.3996 9.77808 12.4674 7.39947 14.8726C4.86684 17.4332 2.71192 20.3566 0.394151 23.1233C0.253825 23.2907 0.130998 23.4724 0 23.6475Z"/>
    <path d="M23.3874 2.44238C23.393 3.7753 22.4633 4.75063 21.1495 4.78991C19.8211 4.8296 18.7173 3.7962 18.6758 2.47401C18.6362 1.20981 19.766 0.0236044 21.032 0.000345707C22.2863 -0.0226693 23.3817 1.11296 23.3874 2.44238Z"/>
  </g>
</svg>
