<svg width="26" height="26" viewBox="0 0 26 26" fill="none" xmlns="http://www.w3.org/2000/svg">
<path d="M19.1025 8.49589L19.6222 9.01561C22.2738 11.6673 22.2738 13.7886 19.6222 16.4402L16.4402 19.6222C13.7886 22.2739 11.6672 22.2739 9.01559 19.6222L5.83361 16.4402C3.18196 13.7886 3.18196 11.6673 5.83361 9.01561L6.36394 8.48528" stroke="#254C72" stroke-width="1.5" stroke-linecap="round" stroke-linejoin="round"/>
<path d="M12.7279 13.7886L12.7332 19.1078L14.8598 16.9812" stroke="#254C72" stroke-width="1.5" stroke-linecap="round" stroke-linejoin="round"/>
<path d="M12.7332 19.1078L10.6066 16.9812" stroke="#254C72" stroke-width="1.5" stroke-linecap="round" stroke-linejoin="round"/>
<path d="M11.0575 9.99672L9.62561 8.56483C8.43237 7.37159 8.43237 6.41699 9.62561 5.22375L11.0575 3.79186C12.2507 2.59861 13.2053 2.59861 14.3986 3.79186L15.8305 5.22375C17.0237 6.41699 17.0237 7.37159 15.8305 8.56483L14.3986 9.99672C13.2053 11.19 12.2507 11.19 11.0575 9.99672Z" stroke="#254C72" stroke-width="1.5" stroke-linecap="round" stroke-linejoin="round"/>
</svg>
