<svg width="26" height="26" viewBox="0 0 26 26" fill="none" xmlns="http://www.w3.org/2000/svg">
<g clip-path="url(#clip0_8640_94372)">
<path opacity="0.35" d="M16.8744 24.2095L22.503 18.581C24.9425 16.1414 24.9496 13.2211 22.503 10.7745L16.8815 5.15301C14.4279 2.69934 11.5075 2.70642 9.06799 5.14594L3.44649 10.7674C0.9999 13.214 0.999899 16.1273 3.44649 18.5739L9.07506 24.2025C11.5146 26.6561 14.4349 26.6491 16.8744 24.2095Z" fill="#96ACC5"/>
<path d="M10.7426 10.329L8.83345 8.41977C7.24246 6.82878 7.24246 5.55599 8.83345 3.965L10.7426 2.05581C12.3336 0.464818 13.6064 0.464818 15.1974 2.05581L17.1066 3.965C18.6976 5.55599 18.6976 6.82878 17.1066 8.41977L15.1974 10.329C13.6064 11.9199 12.3336 11.9199 10.7426 10.329Z" fill="#96ACC5"/>
<path d="M12.476 23.0216C12.5397 23.0852 12.6104 23.1276 12.6952 23.1701C12.7023 23.1771 12.7164 23.1771 12.7164 23.1771C12.7872 23.2054 12.872 23.2196 12.9427 23.2196C12.971 23.2196 12.9993 23.2196 13.0205 23.2125C13.0841 23.2054 13.1478 23.1983 13.1973 23.1771C13.2185 23.1701 13.2468 23.1559 13.268 23.1489C13.3458 23.1135 13.4236 23.064 13.4872 23.0004L16.3298 20.1578C16.6197 19.8679 16.6197 19.387 16.3298 19.0971C16.0398 18.8072 15.5873 18.8214 15.2903 19.1183L13.7276 20.681L13.7205 15.3848C13.7205 14.9747 13.3811 14.6353 12.971 14.6353C12.7589 14.6353 12.575 14.7201 12.4407 14.8545C12.3063 14.9888 12.2215 15.1727 12.2215 15.3848L12.2285 20.6669L10.6729 19.1113C10.383 18.8214 9.90216 18.8214 9.61225 19.1113C9.32233 19.4012 9.32233 19.882 9.61225 20.1719L12.4548 23.0145C12.4619 23.0216 12.4619 23.0216 12.476 23.0216Z" fill="#96ACC5"/>
</g>
<defs>
<clipPath id="clip0_8640_94372">
<rect width="26" height="26" fill="white"/>
</clipPath>
</defs>
</svg>
