<svg width="23" height="23" viewBox="0 0 23 23" fill="none" xmlns="http://www.w3.org/2000/svg">
<path d="M16.9801 7.55191L17.4421 8.01389C19.7991 10.3709 19.7991 12.2565 17.4421 14.6136L14.6137 17.442C12.2567 19.799 10.371 19.799 8.01402 17.442L5.1856 14.6136C2.82857 12.2565 2.82857 10.3709 5.1856 8.01389L5.657 7.54248" stroke="#254C72" stroke-width="1.5" stroke-linecap="round" stroke-linejoin="round"/>
<path d="M11.3137 12.2565L11.3184 16.9847L13.2088 15.0944" stroke="#254C72" stroke-width="1.5" stroke-linecap="round" stroke-linejoin="round"/>
<path d="M11.3184 16.9847L9.42803 15.0944" stroke="#254C72" stroke-width="1.5" stroke-linecap="round" stroke-linejoin="round"/>
<path d="M9.82883 8.88601L8.55604 7.61322C7.49538 6.55256 7.49538 5.70403 8.55604 4.64337L9.82883 3.37058C10.8895 2.30992 11.738 2.30992 12.7987 3.37058L14.0715 4.64337C15.1321 5.70403 15.1321 6.55256 14.0715 7.61322L12.7987 8.88601C11.738 9.94667 10.8895 9.94667 9.82883 8.88601Z" stroke="#254C72" stroke-width="1.5" stroke-linecap="round" stroke-linejoin="round"/>
</svg>
