<svg width="36" height="36" viewBox="0 0 36 36" fill="none" xmlns="http://www.w3.org/2000/svg">
<path opacity="0.4" d="M24.2851 3H11.7301C6.27013 3 3.01514 6.255 3.01514 11.715V24.27C3.01514 29.73 6.27013 32.985 11.7301 32.985H24.2851C29.7451 32.985 33.0001 29.73 33.0001 24.27V11.715C33.0001 6.255 29.7451 3 24.2851 3Z" fill="currentColor"/>
<path d="M13.2301 24.0302C12.9451 24.0302 12.6601 23.9252 12.4351 23.7002C12.0001 23.2652 12.0001 22.5452 12.4351 22.1102L22.2601 12.2852C22.6951 11.8502 23.4151 11.8502 23.8501 12.2852C24.2851 12.7202 24.2851 13.4402 23.8501 13.8752L14.0251 23.7002C13.8001 23.9252 13.5151 24.0302 13.2301 24.0302Z" fill="currentColor"/>
<path d="M13.845 11.4902C12.63 11.4902 11.625 12.4803 11.625 13.7103C11.625 14.9253 12.615 15.9302 13.845 15.9302C15.06 15.9302 16.065 14.9403 16.065 13.7103C16.05 12.4803 15.06 11.4902 13.845 11.4902Z" fill="currentColor"/>
<path d="M23.655 20.085C22.44 20.085 21.4351 21.0749 21.4351 22.3049C21.4351 23.5199 22.425 24.5249 23.655 24.5249C24.87 24.5249 25.875 23.5349 25.875 22.3049C25.875 21.0749 24.885 20.085 23.655 20.085Z" fill="currentColor"/>
</svg>
