<svg width="20" height="22" viewBox="0 0 20 22" fill="none" xmlns="http://www.w3.org/2000/svg">
<path d="M9.1665 16.25H17.4998" stroke="currentColor" stroke-width="1.5" stroke-linecap="round" stroke-linejoin="round"/>
<path d="M9.1665 10.4167H17.4998" stroke="currentColor" stroke-width="1.5" stroke-linecap="round" stroke-linejoin="round"/>
<path d="M9.1665 4.58334H17.4998" stroke="currentColor" stroke-width="1.5" stroke-linecap="round" stroke-linejoin="round"/>
<path d="M5.57715 7H4.88574V4.24316C4.88574 4.15137 4.88672 4.05957 4.88867 3.96777C4.89062 3.87598 4.89258 3.78613 4.89453 3.69824C4.89844 3.61035 4.90332 3.52637 4.90918 3.44629C4.86816 3.49121 4.81738 3.54004 4.75684 3.59277C4.69824 3.64551 4.63574 3.7002 4.56934 3.75684L4.07715 4.14941L3.73145 3.71289L5.00293 2.7168H5.57715V7Z" fill="currentColor"/>
<path d="M6.45312 14H3.55273V13.4814L4.66309 12.3564C4.87793 12.1377 5.05469 11.9492 5.19336 11.791C5.33203 11.6309 5.43457 11.4795 5.50098 11.3369C5.56934 11.1943 5.60352 11.0391 5.60352 10.8711C5.60352 10.6641 5.54395 10.5078 5.4248 10.4023C5.30566 10.2949 5.14844 10.2412 4.95312 10.2412C4.76758 10.2412 4.5957 10.2783 4.4375 10.3525C4.28125 10.4248 4.11914 10.5283 3.95117 10.6631L3.57324 10.209C3.69238 10.1074 3.81934 10.0146 3.9541 9.93066C4.09082 9.84668 4.24316 9.78027 4.41113 9.73145C4.5791 9.68066 4.77051 9.65527 4.98535 9.65527C5.25684 9.65527 5.49121 9.7041 5.68848 9.80176C5.88574 9.89746 6.03711 10.0312 6.14258 10.2031C6.25 10.375 6.30371 10.5752 6.30371 10.8037C6.30371 11.0342 6.25781 11.2471 6.16602 11.4424C6.07422 11.6377 5.94336 11.8311 5.77344 12.0225C5.60352 12.2119 5.40137 12.418 5.16699 12.6406L4.42578 13.3643V13.3965H6.45312V14Z" fill="currentColor"/>
<path d="M6.28906 17.6953C6.28906 17.8887 6.25 18.0566 6.17188 18.1992C6.09375 18.3418 5.98633 18.459 5.84961 18.5508C5.71484 18.6406 5.55859 18.7051 5.38086 18.7441V18.7646C5.72266 18.8076 5.98047 18.915 6.1543 19.0869C6.33008 19.2588 6.41797 19.4863 6.41797 19.7695C6.41797 20.0176 6.3584 20.2393 6.23926 20.4346C6.12012 20.6279 5.9375 20.7803 5.69141 20.8916C5.44531 21.0029 5.12891 21.0586 4.74219 21.0586C4.50977 21.0586 4.29395 21.04 4.09473 21.0029C3.89746 20.9658 3.70996 20.9062 3.53223 20.8242V20.2119C3.71387 20.3018 3.90723 20.3711 4.1123 20.4199C4.31738 20.4688 4.51172 20.4932 4.69531 20.4932C5.05273 20.4932 5.30762 20.4268 5.45996 20.2939C5.6123 20.1592 5.68848 19.9736 5.68848 19.7373C5.68848 19.585 5.64844 19.46 5.56836 19.3623C5.49023 19.2646 5.36816 19.1914 5.20215 19.1426C5.03809 19.0938 4.82617 19.0693 4.56641 19.0693H4.18848V18.5156H4.56934C4.81738 18.5156 5.0166 18.4863 5.16699 18.4277C5.31738 18.3672 5.42578 18.2842 5.49219 18.1787C5.56055 18.0732 5.59473 17.9502 5.59473 17.8096C5.59473 17.626 5.53516 17.4834 5.41602 17.3818C5.29688 17.2783 5.12012 17.2266 4.88574 17.2266C4.74121 17.2266 4.60938 17.2432 4.49023 17.2764C4.37305 17.3096 4.26465 17.3516 4.16504 17.4023C4.06543 17.4531 3.9707 17.5078 3.88086 17.5664L3.5498 17.0889C3.71191 16.9678 3.90527 16.8652 4.12988 16.7812C4.35449 16.6973 4.61621 16.6553 4.91504 16.6553C5.35449 16.6553 5.69336 16.75 5.93164 16.9395C6.16992 17.127 6.28906 17.3789 6.28906 17.6953Z" fill="currentColor"/>
</svg>
