<svg width="20" height="20" viewBox="0 0 20 20" fill="none" xmlns="http://www.w3.org/2000/svg">
<path opacity="0.4" d="M10 4.41668V17.775C9.85835 17.775 9.70835 17.75 9.59169 17.6833L9.55835 17.6667C7.95835 16.7917 5.16669 15.875 3.35835 15.6333L3.11669 15.6C2.31669 15.5 1.66669 14.75 1.66669 13.95V3.88335C1.66669 2.89168 2.47502 2.14168 3.46669 2.22501C5.21669 2.36668 7.86669 3.25002 9.35002 4.17502L9.55835 4.30001C9.68335 4.37501 9.84169 4.41668 10 4.41668Z" fill="#557491"/>
<path d="M18.3333 3.89168V13.95C18.3333 14.75 17.6833 15.5 16.8833 15.6L16.6083 15.6333C14.7917 15.875 11.9917 16.8 10.3917 17.6833C10.2833 17.75 10.15 17.775 10 17.775V4.41668C10.1583 4.41668 10.3167 4.37501 10.4417 4.30001L10.5833 4.20835C12.0667 3.27501 14.725 2.38335 16.475 2.23335H16.525C17.5167 2.15001 18.3333 2.89168 18.3333 3.89168Z" fill="#557491"/>
<path d="M6.45831 7.70001H4.58331C4.24165 7.70001 3.95831 7.41668 3.95831 7.07501C3.95831 6.73335 4.24165 6.45001 4.58331 6.45001H6.45831C6.79998 6.45001 7.08331 6.73335 7.08331 7.07501C7.08331 7.41668 6.79998 7.70001 6.45831 7.70001Z" fill="#557491"/>
<path d="M7.08331 10.2H4.58331C4.24165 10.2 3.95831 9.91668 3.95831 9.57501C3.95831 9.23335 4.24165 8.95001 4.58331 8.95001H7.08331C7.42498 8.95001 7.70831 9.23335 7.70831 9.57501C7.70831 9.91668 7.42498 10.2 7.08331 10.2Z" fill="#557491"/>
</svg>
