<svg width="20" height="20" viewBox="0 0 20 20" fill="none" xmlns="http://www.w3.org/2000/svg">
<path opacity="0.4" d="M17.0833 8.49166H14.675C12.7 8.49166 11.0917 6.88332 11.0917 4.90832V2.49999C11.0917 2.04166 10.7167 1.66666 10.2583 1.66666H6.72499C4.15833 1.66666 2.08333 3.33332 2.08333 6.30832V13.6917C2.08333 16.6667 4.15833 18.3333 6.72499 18.3333H13.275C15.8417 18.3333 17.9167 16.6667 17.9167 13.6917V9.32499C17.9167 8.86666 17.5417 8.49166 17.0833 8.49166Z" fill="#557491"/>
<path d="M13.1667 1.84167C12.825 1.5 12.2333 1.73334 12.2333 2.20834V5.11667C12.2333 6.33334 13.2667 7.34167 14.525 7.34167C15.3167 7.35 16.4167 7.35 17.3583 7.35C17.8333 7.35 18.0833 6.79167 17.75 6.45834C16.55 5.25 14.4 3.075 13.1667 1.84167Z" fill="#557491"/>
<path d="M11.25 11.4583H6.25C5.90833 11.4583 5.625 11.175 5.625 10.8333C5.625 10.4917 5.90833 10.2083 6.25 10.2083H11.25C11.5917 10.2083 11.875 10.4917 11.875 10.8333C11.875 11.175 11.5917 11.4583 11.25 11.4583Z" fill="#557491"/>
<path d="M9.58333 14.7917H6.25C5.90833 14.7917 5.625 14.5083 5.625 14.1667C5.625 13.825 5.90833 13.5417 6.25 13.5417H9.58333C9.925 13.5417 10.2083 13.825 10.2083 14.1667C10.2083 14.5083 9.925 14.7917 9.58333 14.7917Z" fill="#557491"/>
</svg>
