<svg width="20" height="20" viewBox="0 0 20 20" fill="none" xmlns="http://www.w3.org/2000/svg">
<path opacity="0.4" d="M17.5 4.375H11.6667C11.325 4.375 11.0417 4.09167 11.0417 3.75C11.0417 3.40833 11.325 3.125 11.6667 3.125H17.5C17.8417 3.125 18.125 3.40833 18.125 3.75C18.125 4.09167 17.8417 4.375 17.5 4.375Z" fill="#557491"/>
<path opacity="0.4" d="M17.5 8.54166H11.6667C11.325 8.54166 11.0417 8.25832 11.0417 7.91666C11.0417 7.57499 11.325 7.29166 11.6667 7.29166H17.5C17.8417 7.29166 18.125 7.57499 18.125 7.91666C18.125 8.25832 17.8417 8.54166 17.5 8.54166Z" fill="#557491"/>
<path d="M17.5 12.7083H2.5C2.15833 12.7083 1.875 12.425 1.875 12.0833C1.875 11.7417 2.15833 11.4583 2.5 11.4583H17.5C17.8417 11.4583 18.125 11.7417 18.125 12.0833C18.125 12.425 17.8417 12.7083 17.5 12.7083Z" fill="#557491"/>
<path opacity="0.4" d="M17.5 16.875H2.5C2.15833 16.875 1.875 16.5917 1.875 16.25C1.875 15.9083 2.15833 15.625 2.5 15.625H17.5C17.8417 15.625 18.125 15.9083 18.125 16.25C18.125 16.5917 17.8417 16.875 17.5 16.875Z" fill="#557491"/>
<path d="M6.6 2.91666H4.23333C3.06667 2.91666 2.5 3.48332 2.5 4.64999V7.02499C2.5 8.19166 3.06667 8.75832 4.23333 8.75832H6.60833C7.775 8.75832 8.34167 8.19166 8.34167 7.02499V4.64999C8.33333 3.48332 7.76667 2.91666 6.6 2.91666Z" fill="#557491"/>
</svg>
