<svg width="24" height="24" viewBox="0 0 24 24" fill="none" xmlns="http://www.w3.org/2000/svg">
<path d="M19.34 14.4899L18.34 12.8299C18.13 12.4599 17.94 11.7599 17.94 11.3499V8.8199C17.94 5.5599 15.29 2.8999 12.02 2.8999C8.75 2.8999 6.1 5.5599 6.1 8.8199V11.3499C6.1 11.7599 5.91 12.4599 5.7 12.8199L4.69 14.4899C4.29 15.1599 4.2 15.8999 4.45 16.5799C4.69 17.2499 5.26 17.7699 6 18.0199C7.94 18.6799 9.98 18.9999 12.02 18.9999C14.06 18.9999 16.1 18.6799 18.04 18.0299C18.74 17.7999 19.28 17.2699 19.54 16.5799C19.8 15.8899 19.73 15.1299 19.34 14.4899Z" fill="#254C72"/>
<path opacity="0.4" d="M14.25 3.32C13.56 3.05 12.81 2.9 12.02 2.9C11.24 2.9 10.49 3.04 9.79999 3.32C10.23 2.51 11.08 2 12.02 2C12.97 2 13.81 2.51 14.25 3.32Z" fill="#254C72"/>
<path opacity="0.4" d="M14.83 20.01C14.41 21.17 13.3 22 12 22C11.21 22 10.43 21.68 9.87999 21.11C9.55999 20.81 9.31999 20.41 9.17999 20C9.30999 20.02 9.43999 20.03 9.57999 20.05C9.80999 20.08 10.05 20.11 10.29 20.13C10.86 20.18 11.44 20.21 12.02 20.21C12.59 20.21 13.16 20.18 13.72 20.13C13.93 20.11 14.14 20.1 14.34 20.07C14.5 20.05 14.66 20.03 14.83 20.01Z" fill="#254C72"/>
</svg>
